<svg width="36px" height="30px" viewBox="0 0 36 30" version="1.1" xmlns="http://www.w3.org/2000/svg" xmlns:xlink="http://www.w3.org/1999/xlink">
    <title>Left arrow</title>
    <g id="left-arrow" stroke="none" stroke-width="1" fill="#000000" fill-rule="nonzero">
        <path d="M33.9763902,12.1769268 L34.0325854,12.1892195 L9.94302439,12.1892195 L17.5159024,4.59965854 C17.8867317,4.22912195 18.0901463,3.72717073 18.0901463,3.20034146 C18.0901463,2.6735122 17.8867317,2.17507317 17.5159024,1.80365854 L16.337561,0.624731707 C15.9670244,0.254195122 15.4732683,0.0493170732 14.9467317,0.0493170732 C14.4199024,0.0493170732 13.9258537,0.252731707 13.5553171,0.623268293 L0.57395122,13.6034634 C0.20195122,13.9754634 -0.00146341463,14.4709756 -7.84137531e-06,14.9980976 C-0.00146341463,15.5281463 0.20195122,16.0239512 0.57395122,16.3953659 L13.5553171,29.3767317 C13.9258537,29.7469756 14.4196098,29.9506829 14.9467317,29.9506829 C15.4732683,29.9506829 15.9670244,29.7466829 16.337561,29.3767317 L17.5159024,28.1978049 C17.8867317,27.8278537 18.0901463,27.3338049 18.0901463,26.8069756 C18.0901463,26.280439 17.8867317,25.812439 17.5159024,25.4421951 L9.85756098,17.8101951 L34.0033171,17.8101951 C35.0882927,17.8101951 35.9999922,16.8750732 35.9999922,15.7906829 L35.9999922,14.1232683 C35.9999922,13.038878 35.0613659,12.1769268 33.9763902,12.1769268 Z"></path>
    </g>
</svg>