<svg width="36px" height="30px" viewBox="0 0 36 30" version="1.1" xmlns="http://www.w3.org/2000/svg" xmlns:xlink="http://www.w3.org/1999/xlink">
    <title>Right arrow</title>
    <path d="m33.9763902 12.1769268.0561952.0122927h-24.08956101l7.57287801-7.58956096c.3708293-.37053659.5742439-.87248781.5742439-1.39931708 0-.52682926-.2034146-1.02526829-.5742439-1.39668292l-1.1783414-1.17892683c-.3705366-.37053659-.8642927-.57541464-1.3908293-.57541464-.5268293 0-1.020878.20341464-1.3914146.57395122l-12.98136588 12.98019511c-.372.372-.57541463.8675122-.57395906 1.3946342-.00145557.5300487.20195906 1.0258536.57395906 1.3972683l12.98136588 12.9813658c.3705366.3702439.8642927.5739512 1.3914146.5739512.5265366 0 1.0202927-.204 1.3908293-.5739512l1.1783414-1.1789268c.3708293-.3699512.5742439-.864.5742439-1.3908293 0-.5265366-.2034146-.9945366-.5742439-1.3647805l-7.65834142-7.632h24.14575612c1.0849756 0 1.9966751-.9351219 1.9966751-2.0195122v-1.6674146c0-1.0843903-.9386263-1.9463415-2.023602-1.9463415z" transform="matrix(-1 0 0 1 36 0)" />
</svg>